<svg xmlns="http://www.w3.org/2000/svg" viewBox="0 0 444 360">
  <path d="M350.552 237.701l-10.374-6.915C345.254 214.762 348 197.703 348 180c0-92.784-75.216-168-168-168S12 87.216 12 180s75.216 168 168 168c37.494 0 72.115-12.287 100.067-33.048l6.394 10.19C256.644 347.049 219.837 360 180 360 80.589 360 0 279.411 0 180S80.589 0 180 0s180 80.589 180 180c0 20.182-3.322 39.588-9.448 57.701z"/>
  <path d="M407.99 360v-.005c0-26.507-21.488-47.995-47.995-47.995l-.026.001v-12L360 300c33.137 0 60 26.863 60 60h-12.01zm-47.981-85c0-26.51-21.491-48-48-48l-.04.001v-12L312 215c33.137 0 60 26.863 60 60h-11.991zm-91.557-47.556A48.335 48.335 0 00262 227c-26.51 0-48 21.49-48 48 0 1.667.086 3.314.252 4.938h-12.033A60.63 60.63 0 01202 275c0-33.137 26.863-60 60-60 2.363 0 4.69.152 6.982.417l-.53 12.027z"/>
  <path d="M329 312c-15.987 0-30.842 4.819-43.214 13.071l-27.36 9.12C274.905 313.37 300.383 300 329 300v12zm-111.732-71.086C194.696 224.561 180 198.004 180 168a6 6 0 1112 0c0 25.633 12.367 48.376 31.458 62.594l-6.19 10.32zm185.614 89.851c16.732-13.478 27.789-33.71 29.002-56.565l11.855-10.726c.155 2.158.261 4.329.261 6.526 0 29.279-13.99 55.283-35.641 71.719l-5.477-10.954zM180 348h234v12H180v-12z"/>
  <path d="M360 263h84v12h-84v-12zm-95-48h48v12h-48v-12zm64 85h31.031v12h-31L329 300z"/>
  <path d="M215.859 280a60.8 60.8 0 01-7.974-.541l.629-12.015a48.6 48.6 0 007.345.556c26.57 0 48.11-21.49 48.11-48 0-1.667-.086-3.314-.252-4.938h12.064A60.63 60.63 0 01276 220c0 33.137-26.926 60-60.141 60z"/>
</svg>