<svg xmlns="http://www.w3.org/2000/svg" fill="none" viewBox="0 0 184 68">
  <path d="M31.12 27.2c-5.76 0-11.04 2.304-14.88 6.336-.288.288-.576.096-.576-.192V.8h-.672C11.632 5.312 6.352 8.48.4 8.96v.672h.576c.672 0 1.248.576 1.248 1.344V66.08a1.27 1.27 0 01-1.248 1.248H.4V68h17.184v-.672h-.576c-.768 0-1.344-.576-1.344-1.248v-4.224c0-.288.384-.384.576-.192l.288.288C20.464 65.888 25.552 68 31.12 68c11.424 0 20.544-9.696 20.544-20.544 0-11.328-9.888-20.256-20.544-20.256zm3.936 38.784c-.96.864-2.208 1.344-3.744 1.344h-.192c-5.664 0-10.656-2.304-14.304-6.048-.672-.672-1.152-1.632-1.152-2.688V36.608c0-1.056.48-2.016 1.152-2.688 3.744-3.84 8.832-6.048 14.304-6.048h.192c1.536 0 2.784.48 3.744 1.44 2.592 2.592 2.592 8.832 2.496 16.032v4.512c.096 7.2.096 13.44-2.496 16.128zM102.744 66.08V37.376c0-.768.576-1.248 1.344-1.248h.576v-.672c-6.048-.576-11.232-3.648-14.688-8.256h-.672v6.144c0 .288-.288.384-.48.192-3.84-4.032-9.216-6.336-14.88-6.336-11.232 0-20.544 9.504-20.544 20.256C53.4 58.88 63.096 68 73.944 68c5.856 0 11.04-2.496 14.88-6.336.192-.192.48-.096.48.192v4.224a1.27 1.27 0 01-1.248 1.248h-.576V68h17.184v-.672h-.576c-.768 0-1.344-.576-1.344-1.248zm-13.44-7.488c0 1.056-.384 2.016-1.152 2.688-3.552 3.744-8.64 6.048-14.208 6.048h-.192c-1.632 0-2.784-.48-3.744-1.344-2.592-2.688-2.592-8.928-2.496-16.128v-4.512c-.096-7.2-.096-13.44 2.496-16.032.96-.96 2.112-1.44 3.744-1.44h.192c5.472 0 10.56 2.208 14.304 6.048.672.672 1.056 1.632 1.056 2.688v21.984zM121.664 27.2h-.672c-3.36 4.608-8.64 7.68-14.592 8.256v.672h.576a1.27 1.27 0 011.248 1.248V66.08a1.27 1.27 0 01-1.248 1.248h-.576V68h17.184v-.672h-.576c-.768 0-1.344-.576-1.344-1.248V27.2zm0-16.512a6.679 6.679 0 00-6.72-6.72c-3.648 0-6.72 2.976-6.72 6.72 0 3.744 3.072 6.72 6.72 6.72a6.679 6.679 0 006.72-6.72zM127.224 66.08c0 .672-.48 1.248-1.248 1.248h-.576V68h17.184v-.672h-.576c-.768 0-1.344-.576-1.344-1.248V10.976c0-.768.576-1.344 1.344-1.344h.576V8.96c-5.952-.48-11.232-3.648-14.592-8.16h-.768v65.28z"/>
  <path d="M157.28 49.568H183.104v-1.92c0-5.472-2.112-10.656-5.952-14.496s-8.928-5.952-14.4-5.952c-5.472 0-10.56 2.112-14.4 5.952s-5.952 9.024-5.952 14.496c0 5.376 2.112 10.56 5.952 14.4a20.344 20.344 0 0014.4 5.952c5.472 0 10.56-2.112 14.4-5.952l-.48-.48c-3.84 3.84-8.832 5.76-13.824 5.76h-.096c-1.344 0-2.88-.48-3.744-1.44-2.208-2.112-2.496-6.816-2.592-12.48v-2.976c.096-.48.384-.864.864-.864zm-.768-4.416c-.096-7.104-.096-13.248 2.496-15.84.864-.96 2.4-1.44 3.744-1.44 1.344 0 2.784.48 3.744 1.44 2.112 2.112 2.496 6.528 2.496 12V48.128c0 .48-.288.768-.768.768H157.28c-.48 0-.768-.288-.768-.768-.096-1.536 0-2.976 0-2.976z"/>
</svg>