<svg xmlns="http://www.w3.org/2000/svg" fill="none" viewBox="0 0 100 100">
  <circle r="50" fill="#E1EBEF" transform="matrix(0 1 1 0 50 50)"/>
  <path fill="#C3D5DB" fill-rule="evenodd" d="M55.68 40c0-12.703-10.298-23-23-23-12.703 0-23 10.297-23 23s10.297 23 23 23c12.702 0 23-10.297 23-23zm20.542-17.419c8.837 0 16 7.164 16 16 0 8.837-7.163 16-16 16-8.836 0-16-7.163-16-16 0-8.836 7.164-16 16-16zM62.92 57.624c8.836 0 16 7.164 16 16 0 8.837-7.164 16-16 16-8.837 0-16-7.163-16-16 0-8.836 7.163-16 16-16z" clip-rule="evenodd"/>
</svg>