<svg xmlns="http://www.w3.org/2000/svg" viewBox="0 0 24 24">
  <path d="M15.131 11.542l4.582 4.609a1.1 1.1 0 01.364.691.8.8 0 01-.194.667 13.769 13.769 0 01-2.376 2.373.8.8 0 01-.667.194 1.255 1.255 0 01-.715-.339l-4.582-4.606-4.606 4.606a1.146 1.146 0 01-.691.339.873.873 0 01-.691-.194 14.7 14.7 0 01-2.348-2.352.873.873 0 01-.194-.691 1.146 1.146 0 01.339-.691l4.606-4.606L3.372 6.96a1.2 1.2 0 01-.365-.715.8.8 0 01.2-.667 14.2 14.2 0 012.347-2.376.873.873 0 01.691-.194 1.1 1.1 0 01.691.364l4.606 4.388 4.582-4.388a1.2 1.2 0 01.715-.364.8.8 0 01.667.194 13.769 13.769 0 012.376 2.376.8.8 0 01.194.667 1.194 1.194 0 01-.364.715z"/>
</svg>