<svg xmlns="http://www.w3.org/2000/svg" viewBox="0 0 24 24">
  <path d="M11.08 14.769q-.242-.17-1.164-1.018t-2.509-2.582a28.179 28.179 0 01-2.655-3.333.861.861 0 01-.051-.921.894.894 0 01.8-.485h3.155A16.355 16.355 0 019.844 1.8a1.891 1.891 0 011.794-.8 1.891 1.891 0 011.794.8 10.917 10.917 0 01.569 1.782q.376 1.418.618 2.848h3.152a.894.894 0 01.8.485.862.862 0 01-.049.921 30.79 30.79 0 01-2.667 3.333q-1.576 1.733-2.5 2.582t-1.161 1.018a.9.9 0 01-1.116 0zm8.412-2.133h3.782a48.069 48.069 0 01-.873 9.433 1.864 1.864 0 01-.7 1.03 1.932 1.932 0 01-1.188.4H2.74a1.869 1.869 0 01-1.164-.388 1.978 1.978 0 01-.7-1.018 48.217 48.217 0 01-.875-9.458h3.781a48.788 48.788 0 00.461 6.982h14.788a49.436 49.436 0 00.461-6.982z"/>
</svg>