<svg xmlns="http://www.w3.org/2000/svg" viewBox="0 0 24 24">
  <path d="M21.575 11.674a22.4 22.4 0 01-2.509 4.061 20.27 20.27 0 01-2.885 3.1 19.142 19.142 0 01-2.57 1.867 4.04 4.04 0 01-1.758.691 4.12 4.12 0 01-1.758-.674 18.068 18.068 0 01-2.57-1.855 20.4 20.4 0 01-2.885-3.1 22.3 22.3 0 01-2.509-4.061 10.8 10.8 0 01-1.127-4.199 5.29 5.29 0 01.691-3.079A5.206 5.206 0 013.61 2.631a5.021 5.021 0 012.521-.606 4.815 4.815 0 012.861.9 7.614 7.614 0 011.733 1.636 6.487 6.487 0 01.933 1.515l.194.582q.073-.242.218-.655a6.7 6.7 0 01.885-1.406 7.494 7.494 0 011.758-1.7 5.04 5.04 0 012.958-.9 5.2 5.2 0 012.024.4 4.769 4.769 0 011.7 1.212 5.218 5.218 0 011.1 1.927 6.133 6.133 0 01.145 2.715 11.961 11.961 0 01-1.067 3.418z"/>
</svg>
