<svg xmlns="http://www.w3.org/2000/svg" viewBox="0 0 24 24">
  <path d="M21.637 4.691a6.932 6.932 0 01.764 1.721 7.777 7.777 0 01.133 2.7 10.8 10.8 0 01-1.042 3.673 20.665 20.665 0 01-4.788 6.5q-3.043 2.788-4.958 2.788t-4.945-2.788a20.773 20.773 0 01-4.776-6.5 10.325 10.325 0 01-.982-3.624 8.574 8.574 0 01.145-2.8 6.687 6.687 0 01.691-1.673 5.572 5.572 0 012.206-1.985 6.534 6.534 0 013.006-.7 6.062 6.062 0 013.567 1.015 6.7 6.7 0 011.136 1.018 7.415 7.415 0 011.164-1.018A5.947 5.947 0 0116.497 2a6.317 6.317 0 012.97.7 5.637 5.637 0 012.17 1.988zm-9.891 14.473q.945-.1 3.285-2.315a17.524 17.524 0 003.794-5.3q1.576-3.345.339-5.285a3.024 3.024 0 00-2.715-1.43 3.232 3.232 0 00-1.867.582 3.838 3.838 0 00-1.139 1.345 6.836 6.836 0 00-.594 1.37 3.624 3.624 0 00-.133.63.831.831 0 01-.291.521.952.952 0 01-.558.23.869.869 0 01-.9-.7 3.685 3.685 0 00-.17-.63 7.6 7.6 0 00-.676-1.406 4.283 4.283 0 00-1.188-1.358 3.266 3.266 0 00-1.891-.582 2.967 2.967 0 00-2.691 1.43q-1.236 1.939.315 5.28a18.548 18.548 0 001.892 3.12 17.059 17.059 0 002.145 2.424 16.007 16.007 0 001.855 1.479 3.515 3.515 0 001.188.594z"/>
</svg>