<svg xmlns="http://www.w3.org/2000/svg" viewBox="0 0 24 24">
  <path d="M22.427 2.668l.049.145q.024.17.061.4t.1.582q.06.352.121.8t.133.994q.072.546.121 1.212t.1 1.382q.048.716.073 1.576t.024 1.733a54.587 54.587 0 01-.752 8.994 1.819 1.819 0 01-.521.9 1.932 1.932 0 01-.933.509q-.485.121-1.467.327t-3.394.545q-2.412.339-4.57.436v-3.736a43.1 43.1 0 007.3-.921 43.083 43.083 0 00.533-7.055 40.4 40.4 0 00-.533-6.861 45.24 45.24 0 00-7.3-.921V-.002q2.158.1 4.57.424t3.394.533q.982.206 1.467.327a1.9 1.9 0 01.921.5 1.787 1.787 0 01.509.885zM8.509 18.643a1.146 1.146 0 01-.412-.1.854.854 0 01-.412-.8v-3.052q-1.891-.218-4.109-.642a12.616 12.616 0 01-2.582-.642A1.937 1.937 0 010 11.613a1.871 1.871 0 01.994-1.794 12.9 12.9 0 012.594-.655q2.23-.437 4.1-.63V5.479a.854.854 0 01.412-.8.863.863 0 01.921.048 30.229 30.229 0 013.358 2.642q1.758 1.575 2.667 2.521a14.345 14.345 0 011.055 1.164.789.789 0 010 1.115 14.068 14.068 0 01-1.055 1.164q-.91.946-2.667 2.509a33.553 33.553 0 01-3.361 2.656.9.9 0 01-.509.145z"/>
</svg>
