<svg xmlns="http://www.w3.org/2000/svg" viewBox="0 0 24 24">
  <path d="M4.781 11.489a42.867 42.867 0 00.558 7.055 43.1 43.1 0 007.3.921v3.73q-2.158-.1-4.57-.436t-3.394-.545q-.982-.206-1.467-.327a1.932 1.932 0 01-.933-.509 1.819 1.819 0 01-.521-.9 54.658 54.658 0 01-.755-8.988q0-.873.024-1.733t.076-1.576q.047-.716.095-1.386t.121-1.208l.133-.992q.06-.448.121-.8t.1-.582l.061-.4.048-.145a1.787 1.787 0 01.509-.885 1.9 1.9 0 01.921-.5q.485-.121 1.467-.327T8.069.423q2.409-.328 4.567-.428v3.714a45.24 45.24 0 00-7.3.921 40.226 40.226 0 00-.555 6.865zm10.982 7.151a1.146 1.146 0 01-.412-.1.836.836 0 01-.388-.8v-3.052q-1.915-.218-4.158-.642a12.706 12.706 0 01-2.606-.642 1.937 1.937 0 01-.994-1.794 1.871 1.871 0 01.994-1.794 13.078 13.078 0 012.63-.655q2.266-.437 4.133-.63V5.476a.836.836 0 01.388-.8.859.859 0 01.921.048 30.229 30.229 0 013.358 2.642q1.758 1.575 2.63 2.521t1.04 1.164a.789.789 0 010 1.115 13.867 13.867 0 01-1.042 1.152q-.9.934-2.642 2.509a31.817 31.817 0 01-3.343 2.668.9.9 0 01-.509.145z"/>
</svg>