<svg xmlns="http://www.w3.org/2000/svg" viewBox="0 0 24 24">
  <path d="M2.237 6.432a1.174 1.174 0 01-.764-.267.978.978 0 01-.372-.655 16.638 16.638 0 010-3.588.978.978 0 01.372-.651 1.174 1.174 0 01.764-.267h20a1.206 1.206 0 01.788.267.984.984 0 01.376.655 16.638 16.638 0 010 3.588.984.984 0 01-.376.655 1.206 1.206 0 01-.788.267h-20zm20 8.533h-20a1.174 1.174 0 01-.764-.267.978.978 0 01-.372-.655 16.638 16.638 0 010-3.588.978.978 0 01.376-.655 1.174 1.174 0 01.764-.267h20a1.206 1.206 0 01.788.267.984.984 0 01.376.655 16.638 16.638 0 010 3.588.984.984 0 01-.376.655 1.206 1.206 0 01-.792.267zm0 8.533h-20a1.174 1.174 0 01-.764-.267.978.978 0 01-.372-.655 16.638 16.638 0 010-3.588.978.978 0 01.376-.655 1.174 1.174 0 01.764-.267h20a1.206 1.206 0 01.788.267.984.984 0 01.376.655 16.638 16.638 0 010 3.588.984.984 0 01-.376.655 1.206 1.206 0 01-.792.267z"/>
</svg>
