<svg xmlns="http://www.w3.org/2000/svg" viewBox="0 0 24 24">
  <path d="M1.141 23.466a1.094 1.094 0 01-.8-.339 1.059 1.059 0 01-.318-1.018l2.4-11.03a.954.954 0 01.315-.582L12.899.342a1.113 1.113 0 011.6 0l8.679 8.655a1.2 1.2 0 010 1.624L12.996 20.776a1.146 1.146 0 01-.582.315q-11.2 2.376-11.273 2.376zm10.691-6.23l8.17-8.17-1.579-1.6-8.17 8.17a1.7 1.7 0 01-2.376 0 1.668 1.668 0 010-2.352l8.17-8.194-1.573-1.576-8.17 8.17a1.575 1.575 0 01-1.77.388l-.849 4.461 3.273 3.3 4.485-.873a1.511 1.511 0 01.388-1.721z"/>
</svg>
