<svg xmlns="http://www.w3.org/2000/svg" viewBox="0 0 24 24">
  <path d="M13.575 16.484a6.54 6.54 0 004.8-1.988 6.54 6.54 0 001.988-4.8 6.54 6.54 0 00-1.988-4.8 6.54 6.54 0 00-4.8-1.988 6.54 6.54 0 00-4.8 1.988 6.54 6.54 0 00-1.988 4.8 6.54 6.54 0 001.988 4.8 6.54 6.54 0 004.8 1.988zm0-16.484a9.348 9.348 0 016.861 2.836 9.341 9.341 0 012.836 6.861 9.351 9.351 0 01-2.836 6.861 9.344 9.344 0 01-6.861 2.836 9.486 9.486 0 01-4.024-.873l-5.842 4.291a2.2 2.2 0 01-1.721.436 2.281 2.281 0 01-1.527-.921 2.338 2.338 0 010-2.788l4.291-5.818a9.486 9.486 0 01-.873-4.024 9.348 9.348 0 012.836-6.861A9.341 9.341 0 0113.576 0z"/>
</svg>