<svg xmlns="http://www.w3.org/2000/svg" viewBox="0 0 24 24">
  <path d="M23.001 20.27a1.523 1.523 0 01.291.9 1.478 1.478 0 01-.461 1.1 1.513 1.513 0 01-1.091.448H1.57a1.508 1.508 0 01-1.333-.748 1.409 1.409 0 01-.024-1.527L10.298 1.8a1.444 1.444 0 011.358-.8 1.444 1.444 0 011.358.8zm-11.394-5.161h.073a.9.9 0 00.63-.279 1.068 1.068 0 00.339-.642q.291-1.576.776-6.036a.909.909 0 00-.182-.606.874.874 0 00-.545-.364 5.522 5.522 0 00-2.061 0 .967.967 0 00-.545.364.855.855 0 00-.206.606q.485 4.461.776 6.036a1.072 1.072 0 00.339.642.877.877 0 00.606.279zm.048 5.5a1.738 1.738 0 10-1.236-.509 1.683 1.683 0 001.236.512z"/>
</svg>
