<svg xmlns="http://www.w3.org/2000/svg" viewBox="0 0 24 24">
  <path d="M19.945 4.185q.073.97.133 2.461t-.17 5.2a39.55 39.55 0 01-.933 6.667 1.082 1.082 0 01-.824.849.744.744 0 01-.315.049 1.122 1.122 0 01-.824-.339l-3.345-3.345q-2.109 1.552-4.048 2.813a12.988 12.988 0 01-2.423 1.381 3 3 0 01-3.176-.873 3 3 0 01-.873-3.176 13.648 13.648 0 011.382-2.4q1.261-1.939 2.812-4.073L3.996 6.054a1.06 1.06 0 01-.291-1.139 1.04 1.04 0 01.849-.824A47.676 47.676 0 0115.317 3a24.706 24.706 0 013.564.121 1.051 1.051 0 01.727.327 1.231 1.231 0 01.339.739z"/>
</svg>
