<svg xmlns="http://www.w3.org/2000/svg" fill="none" viewBox="0 0 52 68">
  <path d="M31.12 27.2c-5.76 0-11.04 2.304-14.88 6.336-.288.288-.576.096-.576-.192V.8h-.672C11.632 5.312 6.352 8.48.4 8.96v.672h.576c.672 0 1.248.576 1.248 1.344V66.08a1.27 1.27 0 01-1.248 1.248H.4V68h17.184v-.672h-.576c-.768 0-1.344-.576-1.344-1.248v-4.224c0-.288.384-.384.576-.192l.288.288C20.464 65.888 25.552 68 31.12 68c11.424 0 20.544-9.696 20.544-20.544 0-11.328-9.888-20.256-20.544-20.256zm3.936 38.784c-.96.864-2.208 1.344-3.744 1.344h-.192c-5.664 0-10.656-2.304-14.304-6.048-.672-.672-1.152-1.632-1.152-2.688V36.608c0-1.056.48-2.016 1.152-2.688 3.744-3.84 8.832-6.048 14.304-6.048h.192c1.536 0 2.784.48 3.744 1.44 2.592 2.592 2.592 8.832 2.496 16.032v4.512c.096 7.2.096 13.44-2.496 16.128z"/>
</svg>