<svg xmlns="http://www.w3.org/2000/svg" viewBox="0 0 24 24">
  <path d="M23.179 11.861a.729.729 0 010 .727 14.483 14.483 0 01-1.6 1.915 25.729 25.729 0 01-2.764 2.618.613.613 0 01-.776.073q-.218-.121-.218-.679a.337.337 0 01.024-.145l.339-2.182h-4.218v4.364l1.937-.412a.719.719 0 01.848.291.55.55 0 01-.073.727 26.4 26.4 0 01-2.691 2.691 13.042 13.042 0 01-1.984 1.552.73.73 0 01-.727 0 12.948 12.948 0 01-1.988-1.552 26.539 26.539 0 01-2.691-2.691.516.516 0 01-.073-.727.72.72 0 01.679-.291h.17l1.939.412v-4.364H5.116l.315 2.182q.145.63-.194.824a.613.613 0 01-.776-.073 25.729 25.729 0 01-2.764-2.618 14.483 14.483 0 01-1.6-1.915.729.729 0 010-.727 14.318 14.318 0 011.612-1.915 28.135 28.135 0 012.752-2.618.666.666 0 01.776-.073q.218.121.218.679a.341.341 0 01-.012.073.407.407 0 00-.012.1l-.339 2.203H9.31V5.946l-1.939.412a.721.721 0 01-.849-.288.514.514 0 01.073-.727 26.155 26.155 0 012.679-2.682 13.131 13.131 0 012-1.564.73.73 0 01.727 0 12.96 12.96 0 011.988 1.551 26.4 26.4 0 012.691 2.691.518.518 0 01.073.727.72.72 0 01-.679.291h-.171l-1.939-.412v4.364h4.194l-.315-2.206q-.145-.655.194-.848a.666.666 0 01.776.073 25.729 25.729 0 012.764 2.618 14.483 14.483 0 011.6 1.915z"/>
</svg>
