<svg xmlns="http://www.w3.org/2000/svg" viewBox="0 0 24 24">
  <path d="M21.298 9.927a16.417 16.417 0 010 3.564.938.938 0 01-.315.655 1 1 0 01-.7.267h-5.87v5.867a.973.973 0 01-.267.679 1.036 1.036 0 01-.655.339 16.638 16.638 0 01-3.588 0 1.042 1.042 0 01-.655-.339.97.97 0 01-.267-.679v-5.867H3.139a1.03 1.03 0 01-.7-.255 1.008 1.008 0 01-.339-.667 16.417 16.417 0 010-3.564 1.056 1.056 0 01.339-.679 1 1 0 01.7-.267h5.842V3.139a1 1 0 01.267-.7 1.036 1.036 0 01.655-.339 16.638 16.638 0 013.588 0 1.042 1.042 0 01.655.339 1 1 0 01.267.7v5.842h5.867a.973.973 0 01.679.267 1.056 1.056 0 01.339.679z"/>
</svg>
