<svg xmlns="http://www.w3.org/2000/svg" viewBox="0 0 24 24">
  <path d="M23.234 10.533a10.3 10.3 0 010 2.23 1.163 1.163 0 01-.339.7 1.133 1.133 0 01-.679.339l-1.988.242a1.284 1.284 0 00-.727.448 1.235 1.235 0 00-.291.812 1.139 1.139 0 00.218.7q0 .024 1.212 1.6a1.143 1.143 0 01.242.715 1.076 1.076 0 01-.267.715 10.361 10.361 0 01-1.576 1.576 1.034 1.034 0 01-.727.267 1.007 1.007 0 01-.7-.242l-1.576-1.212a1.179 1.179 0 00-.727-.218 1.205 1.205 0 00-.812.3 1.349 1.349 0 00-.448.764l-.242 1.939a1.19 1.19 0 01-1.042 1.018q-.727.049-1.115.049t-1.115-.049a1.163 1.163 0 01-.7-.339 1.133 1.133 0 01-.339-.679q-.242-1.915-.242-1.939a1.213 1.213 0 00-.436-.764 1.251 1.251 0 00-.824-.3 1.377 1.377 0 00-.784.252l-1.525 1.184a1.007 1.007 0 01-.7.242 1.154 1.154 0 01-.727-.267 10.361 10.361 0 01-1.576-1.576 1.076 1.076 0 01-.267-.715 1.143 1.143 0 01.242-.715l1.164-1.527a1.22 1.22 0 00.267-.776 1.254 1.254 0 00-.318-.85 1.179 1.179 0 00-.8-.412l-1.891-.242a1.144 1.144 0 01-.679-.339 1.152 1.152 0 01-.339-.7 10.3 10.3 0 010-2.23 1.071 1.071 0 01.315-.691 1.129 1.129 0 01.7-.351l1.891-.242a1.277 1.277 0 00.8-.436 1.254 1.254 0 00.315-.848 1.189 1.189 0 00-.267-.752L2.654 5.686a1.025 1.025 0 01-.255-.715 1.131 1.131 0 01.279-.714A10.361 10.361 0 014.254 2.68a1.076 1.076 0 01.715-.267 1.143 1.143 0 01.715.242L7.21 3.843a1.377 1.377 0 00.776.242 1.251 1.251 0 00.824-.3 1.213 1.213 0 00.436-.764l.242-1.939A1.19 1.19 0 0110.531.057a10.3 10.3 0 012.23 0 1.156 1.156 0 01.7.339 1.137 1.137 0 01.339.679l.242 1.939a1.349 1.349 0 00.448.764 1.205 1.205 0 00.812.3 1.5 1.5 0 00.727-.218l1.581-1.203a1.143 1.143 0 01.715-.242 1.076 1.076 0 01.715.267 10.361 10.361 0 011.57 1.575 1.076 1.076 0 01.267.715 1.143 1.143 0 01-.242.715q-1.212 1.576-1.212 1.6a1.1 1.1 0 00-.218.679 1.235 1.235 0 00.291.812 1.422 1.422 0 00.727.473q1.333.17 1.988.242a1.19 1.19 0 011.018 1.042zm-11.588 5.066a3.933 3.933 0 003.952-3.952 3.933 3.933 0 00-3.952-3.952 3.933 3.933 0 00-3.952 3.952 3.932 3.932 0 003.952 3.951z"/>
</svg>